<svg version="1.1" id="Layer_1" xmlns="http://www.w3.org/2000/svg" xmlns:xlink="http://www.w3.org/1999/xlink" x="0px" y="0px"
	 width="100%" viewBox="0 0 512 512" enable-background="new 0 0 512 512" xml:space="preserve">
<path fill="#FF6529" opacity="1.000000" stroke="none" 
	d="
M0.999998,289.000000 
	C1.000000,267.645782 1.000000,246.291550 1.372082,224.734512 
	C2.824343,219.501160 4.036291,214.494751 4.962756,209.436050 
	C9.983688,182.020584 19.349142,156.221161 32.969627,131.881119 
	C47.978420,105.060150 67.315720,81.914536 90.557564,61.883465 
	C109.603874,45.468330 130.561859,32.135040 153.592300,22.102924 
	C175.766800,12.443655 198.736969,5.565569 222.875641,2.918290 
	C223.644638,2.833954 224.294556,1.663908 225.000000,0.999998 
	C246.020889,1.000000 267.041779,1.000000 288.266602,1.373029 
	C289.314911,2.160819 290.120148,2.800668 291.009796,2.955375 
	C299.516846,4.434722 308.160461,5.326041 316.531952,7.349738 
	C339.693878,12.948840 361.736359,21.499071 382.599335,33.150681 
	C410.653412,48.818375 434.656464,69.382904 455.138947,93.890373 
	C469.790863,111.421570 481.786865,130.791779 491.071930,151.842407 
	C501.123688,174.631195 508.070587,198.179993 511.080872,222.904495 
	C511.174011,223.669540 512.336182,224.304428 513.000000,225.000000 
	C513.000000,235.354233 513.000000,245.708450 512.706787,256.374023 
	C510.842529,255.200409 509.234222,253.752853 507.706024,252.225128 
	C465.434326,209.967117 423.172913,167.698792 380.897247,125.444717 
	C379.372070,123.920357 377.719757,122.523216 375.841370,120.736053 
	C356.701569,120.329201 337.847137,120.253075 318.707825,120.168015 
	C318.226959,120.451157 318.031006,120.743225 317.699524,121.456299 
	C317.526672,122.872971 317.457458,123.868622 317.456543,124.864334 
	C317.424133,160.259750 317.376038,195.655197 317.408722,231.050568 
	C317.411682,234.258713 317.293640,236.870789 312.838806,235.658051 
	C312.515289,235.267899 312.288849,235.092026 311.864532,234.669434 
	C295.943909,218.866928 280.149384,203.392288 264.446014,187.825760 
	C246.488449,170.024673 228.652435,152.100876 210.670944,134.324112 
	C206.309540,130.012375 201.584717,126.068207 196.899155,121.776382 
	C196.581451,121.371765 196.365784,121.173950 195.818359,120.702118 
	C176.452972,120.399933 157.393494,120.399933 138.265472,120.399933 
	C138.183472,122.198395 138.084534,123.356247 138.084442,124.514107 
	C138.077560,212.749420 138.073761,300.984741 138.116196,389.220032 
	C138.116959,390.802826 138.678452,392.385345 139.138992,394.262085 
	C140.781097,396.125122 142.224655,397.731934 143.749512,399.257477 
	C180.053162,435.577240 216.368423,471.885468 252.666306,508.210968 
	C254.186203,509.732056 255.558792,511.400299 257.000000,513.000000 
	C246.645767,513.000000 236.291550,513.000000 225.720673,512.619873 
	C224.825378,511.836853 224.192688,511.219086 223.461304,511.062561 
	C209.489975,508.072205 195.362198,505.685944 181.562775,502.051117 
	C163.892136,497.396515 147.351395,489.736053 131.397369,480.814270 
	C115.386627,471.860809 100.153145,461.632782 86.907730,449.054810 
	C74.598618,437.365967 63.053780,424.717377 52.341705,411.540741 
	C38.838100,394.930389 28.309114,376.254395 20.268419,356.402527 
	C11.707150,335.265381 4.975466,313.538116 2.899748,290.627167 
	C2.845851,290.032288 1.658665,289.540100 0.999998,289.000000 
z"/>
<path fill="#E53B07" opacity="1.000000" stroke="none" 
	d="
M257.468658,513.000000 
	C255.558792,511.400299 254.186203,509.732056 252.666306,508.210968 
	C216.368423,471.885468 180.053162,435.577240 143.749512,399.257477 
	C142.224655,397.731934 140.781097,396.125122 139.604645,394.187805 
	C158.489670,393.819489 177.069748,393.819489 196.219162,393.819489 
	C196.219162,360.486572 196.219162,327.751953 196.381561,294.904572 
	C196.736115,294.607452 196.893494,294.397064 197.478546,294.086670 
	C217.617065,293.951691 237.293137,293.890686 257.434998,293.901123 
	C277.639099,293.972534 297.377441,293.972534 317.394623,293.972534 
	C317.394623,296.700592 317.394562,298.689087 317.394592,300.677582 
	C317.395020,329.304199 317.386047,357.930786 317.414917,386.557373 
	C317.417084,388.698822 317.690125,390.839996 317.876343,393.270020 
	C318.272919,393.645233 318.630371,393.731720 319.453247,393.883545 
	C338.281616,393.882965 356.644592,393.817017 375.233398,393.767303 
	C375.791748,393.615906 375.888672,393.359253 375.843140,392.552368 
	C375.952393,340.014374 375.955139,287.937683 375.988953,235.860962 
	C376.013794,197.596222 376.079315,159.331512 376.126709,121.066788 
	C377.719757,122.523216 379.372070,123.920357 380.897247,125.444717 
	C423.172913,167.698792 465.434326,209.967117 507.706024,252.225128 
	C509.234222,253.752853 510.842529,255.200409 512.706787,256.842651 
	C513.000000,267.354218 513.000000,277.708466 512.593872,288.365448 
	C511.796295,289.511078 511.195099,290.318634 511.046600,291.202301 
	C509.828156,298.451508 509.075867,305.800720 507.466339,312.958649 
	C501.382172,340.016388 491.329346,365.511017 476.997223,389.322723 
	C460.590637,416.580963 439.616760,439.857086 414.787476,459.497101 
	C398.135132,472.669098 379.961609,483.651611 360.294617,491.995605 
	C338.132507,501.398102 315.363342,508.480560 291.326141,511.084198 
	C290.491364,511.174622 289.772736,512.337158 289.000000,513.000000 
	C278.645782,513.000000 268.291534,513.000000 257.468658,513.000000 
z"/>
<path fill="#000000" opacity="1.000000" stroke="none" 
	d="
M513.000000,224.531342 
	C512.336182,224.304428 511.174011,223.669540 511.080872,222.904495 
	C508.070587,198.179993 501.123688,174.631195 491.071930,151.842407 
	C481.786865,130.791779 469.790863,111.421570 455.138947,93.890373 
	C434.656464,69.382904 410.653412,48.818375 382.599335,33.150681 
	C361.736359,21.499071 339.693878,12.948840 316.531952,7.349738 
	C308.160461,5.326041 299.516846,4.434722 291.009796,2.955375 
	C290.120148,2.800668 289.314911,2.160819 288.735229,1.373029 
	C363.593719,1.000000 438.187408,1.000000 513.000000,1.000000 
	C513.000000,75.354088 513.000000,149.708389 513.000000,224.531342 
z"/>
<path fill="#000000" opacity="1.000000" stroke="none" 
	d="
M0.999998,289.468658 
	C1.658665,289.540100 2.845851,290.032288 2.899748,290.627167 
	C4.975466,313.538116 11.707150,335.265381 20.268419,356.402527 
	C28.309114,376.254395 38.838100,394.930389 52.341705,411.540741 
	C63.053780,424.717377 74.598618,437.365967 86.907730,449.054810 
	C100.153145,461.632782 115.386627,471.860809 131.397369,480.814270 
	C147.351395,489.736053 163.892136,497.396515 181.562775,502.051117 
	C195.362198,505.685944 209.489975,508.072205 223.461304,511.062561 
	C224.192688,511.219086 224.825378,511.836853 225.252014,512.619873 
	C150.406296,513.000000 75.812599,513.000000 1.000000,513.000000 
	C1.000000,438.645905 1.000000,364.291626 0.999998,289.468658 
z"/>
<path fill="#000000" opacity="1.000000" stroke="none" 
	d="
M289.468658,513.000000 
	C289.772736,512.337158 290.491364,511.174622 291.326141,511.084198 
	C315.363342,508.480560 338.132507,501.398102 360.294617,491.995605 
	C379.961609,483.651611 398.135132,472.669098 414.787476,459.497101 
	C439.616760,439.857086 460.590637,416.580963 476.997223,389.322723 
	C491.329346,365.511017 501.382172,340.016388 507.466339,312.958649 
	C509.075867,305.800720 509.828156,298.451508 511.046600,291.202301 
	C511.195099,290.318634 511.796295,289.511078 512.593872,288.834106 
	C513.000000,363.593719 513.000000,438.187408 513.000000,513.000000 
	C438.645905,513.000000 364.291626,513.000000 289.468658,513.000000 
z"/>
<path fill="#000000" opacity="1.000000" stroke="none" 
	d="
M224.531342,0.999998 
	C224.294556,1.663908 223.644638,2.833954 222.875641,2.918290 
	C198.736969,5.565569 175.766800,12.443655 153.592300,22.102924 
	C130.561859,32.135040 109.603874,45.468330 90.557564,61.883465 
	C67.315720,81.914536 47.978420,105.060150 32.969627,131.881119 
	C19.349142,156.221161 9.983688,182.020584 4.962756,209.436050 
	C4.036291,214.494751 2.824343,219.501160 1.372082,224.265854 
	C1.000000,149.739456 1.000000,75.478920 1.000000,1.000000 
	C75.354088,1.000000 149.708389,1.000000 224.531342,0.999998 
z"/>
<path fill="#D8D8D8" opacity="1.000000" stroke="none" 
	d="
M317.837250,392.981293 
	C317.690125,390.839996 317.417084,388.698822 317.414917,386.557373 
	C317.386047,357.930786 317.395020,329.304199 317.394592,300.677582 
	C317.394562,298.689087 317.394623,296.700592 317.394623,293.972534 
	C297.377441,293.972534 277.639099,293.972534 257.441406,293.443390 
	C256.980133,273.992096 256.978210,255.069946 257.440674,236.071472 
	C275.931519,235.932510 293.957977,235.869904 312.228699,235.871368 
	C312.637787,235.900909 312.802582,235.866364 312.967407,235.831818 
	C317.293640,236.870789 317.411682,234.258713 317.408722,231.050568 
	C317.376038,195.655197 317.424133,160.259750 317.456543,124.864334 
	C317.457458,123.868622 317.526672,122.872971 317.913635,121.342613 
	C318.534668,120.630295 318.777832,120.419968 318.992706,120.176949 
	C337.847137,120.253075 356.701569,120.329201 375.841370,120.736061 
	C376.079315,159.331512 376.013794,197.596222 375.988953,235.860962 
	C375.955139,287.937683 375.952393,340.014374 375.695068,392.649109 
	C375.268250,393.358215 375.119507,393.539520 375.007599,393.751068 
	C356.644592,393.817017 338.281616,393.882965 319.282959,393.715759 
	C318.406250,393.268677 318.136230,393.101593 317.837250,392.981293 
z"/>
<path fill="#F8FFFB" opacity="1.000000" stroke="none" 
	d="
M256.976257,236.147797 
	C256.978210,255.069946 256.980133,273.992096 256.975647,293.371948 
	C237.293137,293.890686 217.617065,293.951691 197.212677,294.060791 
	C196.395966,294.411713 196.307556,294.714508 196.219162,295.017334 
	C196.219162,327.751953 196.219162,360.486572 196.219162,393.819489 
	C177.069748,393.819489 158.489670,393.819489 139.443970,393.893738 
	C138.678452,392.385345 138.116959,390.802826 138.116196,389.220032 
	C138.073761,300.984741 138.077560,212.749420 138.084442,124.514107 
	C138.084534,123.356247 138.183472,122.198395 138.265472,120.399933 
	C157.393494,120.399933 176.452972,120.399933 195.782684,120.965363 
	C196.108292,121.698868 196.163651,121.866959 196.158600,122.498001 
	C196.140839,160.301605 196.183487,197.642258 196.172852,235.240997 
	C196.416275,235.605728 196.712982,235.712387 197.472717,235.891846 
	C217.615921,236.025711 237.296082,236.086746 256.976257,236.147797 
z"/>
<path fill="#E53B07" opacity="1.000000" stroke="none" 
	d="
M257.440674,236.071457 
	C237.296082,236.086746 217.615921,236.025711 197.373749,235.724487 
	C196.660049,235.266373 196.464859,235.099243 196.226135,234.982925 
	C196.183487,197.642258 196.140839,160.301605 196.361954,122.491653 
	C196.625717,122.022354 197.027023,121.955017 197.027023,121.955017 
	C201.584717,126.068207 206.309540,130.012375 210.670944,134.324112 
	C228.652435,152.100876 246.488449,170.024673 264.446014,187.825760 
	C280.149384,203.392288 295.943909,218.866928 311.848328,234.882065 
	C311.998535,235.381973 311.984406,235.807297 311.984406,235.807297 
	C293.957977,235.869904 275.931519,235.932510 257.440674,236.071457 
z"/>
<path fill="#E64616" opacity="1.000000" stroke="none" 
	d="
M312.228699,235.871368 
	C311.984406,235.807297 311.998535,235.381973 312.014709,235.169342 
	C312.288849,235.092026 312.515289,235.267899 312.838806,235.658051 
	C312.802582,235.866364 312.637787,235.900909 312.228699,235.871368 
z"/>
<path fill="#E85628" opacity="1.000000" stroke="none" 
	d="
M196.899155,121.776382 
	C197.027023,121.955017 196.625717,122.022354 196.422363,122.028702 
	C196.163651,121.866959 196.108292,121.698868 196.088593,121.267540 
	C196.365784,121.173950 196.581451,121.371765 196.899155,121.776382 
z"/>
<path fill="#E1D3CE" opacity="1.000000" stroke="none" 
	d="
M318.707825,120.168015 
	C318.777832,120.419968 318.534668,120.630295 318.049103,120.921616 
	C318.031006,120.743225 318.226959,120.451157 318.707825,120.168015 
z"/>
<path fill="#E85628" opacity="1.000000" stroke="none" 
	d="
M196.381561,294.904572 
	C196.307556,294.714508 196.395966,294.411713 196.750214,294.134766 
	C196.893494,294.397064 196.736115,294.607452 196.381561,294.904572 
z"/>
<path fill="#E0D2CD" opacity="1.000000" stroke="none" 
	d="
M317.876343,393.270020 
	C318.136230,393.101593 318.406250,393.268677 318.817596,393.650391 
	C318.630371,393.731720 318.272919,393.645233 317.876343,393.270020 
z"/>
<path fill="#E0D2CD" opacity="1.000000" stroke="none" 
	d="
M375.233398,393.767303 
	C375.119507,393.539520 375.268250,393.358215 375.601898,393.110352 
	C375.888672,393.359253 375.791748,393.615906 375.233398,393.767303 
z"/>
<path fill="#E85628" opacity="1.000000" stroke="none" 
	d="
M196.172852,235.240997 
	C196.464859,235.099243 196.660049,235.266373 196.910721,235.651688 
	C196.712982,235.712387 196.416275,235.605728 196.172852,235.240997 
z"/>
</svg>